<?xml version="1.0" encoding="UTF-8"?>
<svg xmlns="http://www.w3.org/2000/svg" fill="none" height="101" viewBox="0 0 253 101" width="253"><path d="m1.12378 62.9776c1.76756-23.2473 8.67644-38.4637 46.98642-5.5178 7.908 6.8012 4.1961 18.1982-13.3105 12.5343-9.6114-3.1099-14.6144.292-15.0089 10.2057-.4688 11.3355-3.2047 20.6572-8.9838 20.3192-15.11656-.8913-10.090528-32.2079-9.68322-37.5337" fill="#9469ff"/><path d="m26.423 76.1884c-.3382 4.5726 8.2076 13.3874 20.1041 16.3154 11.8888 2.9203 26.7286-3.22 34.137-22.6094 3.8041-9.9522 4.196-13.4719 6.6092-24.6998 4.7263-21.9024-7.0011-32.6385-23.5932-4.7724-2.2671 3.8041-4.903 9.3911-2.9434 19.0358 3.7504 18.4442-12.127 23.1782-18.4133 21.0878-5.003-1.6676-15.2703-12.8109-15.9004-4.3651" fill="#fa9952"/><g fill="#141414"><path d="m252.371 38.8696v46.4255h-5.195c-.799 0-1.491-.1384-2.059-.415-.561-.2767-1.107-.7301-1.599-1.3526l-21.403-27.3358c0 .2767.008.5534.008.8147v28.2887h-9.184v-46.4255h5.28c.384 0 .73.0154 1.022.0538.354.0461.684.1384.968.269.277.1306.554.3228.807.561.223.2152.454.4688.715.7992l21.472 27.4203c-.015-.3842-.015-.7454-.015-1.0912v-28.0198h9.176z"/><path d="m191.598 61.0795h16.661v19.4278l-.384.2843c-2.336 1.7215-4.865 2.9972-7.508 3.7965-2.636.7915-5.488 1.1911-8.477 1.1911-3.735 0-7.17-.5917-10.213-1.7598-3.051-1.1682-5.695-2.8205-7.862-4.9108-2.167-2.098-3.866-4.6264-5.042-7.5313-1.168-2.8896-1.76-6.0866-1.76-9.4988 0-3.4121.569-6.6629 1.699-9.5525 1.13-2.905 2.759-5.4333 4.849-7.5314 2.083-2.098 4.65-3.7426 7.608-4.8953 2.944-1.1451 6.294-1.7292 9.952-1.7292 1.853 0 3.62.1537 5.234.4458 1.629.2997 3.151.7147 4.534 1.2296 1.407.5225 2.705 1.1758 3.866 1.9289 1.153.7455 2.221 1.5754 3.181 2.4746l.569.5303-2.79 4.4189c-.499.8069-1.191 1.3218-2.036 1.5062-.838.1845-1.722 0-2.636-.561l-2.014-1.1527c-.622-.3535-1.337-.6763-2.098-.9376-.776-.269-1.675-.4995-2.666-.6686-.976-.1768-2.129-.2613-3.42-.2613-2.067 0-3.95.3458-5.603 1.0298-1.644.684-3.058 1.6754-4.211 2.9434-1.168 1.2757-2.075 2.8358-2.705 4.6341-.638 1.8213-.961 3.8963-.961 6.1557 0 2.4208.346 4.611 1.038 6.5016.684 1.8674 1.652 3.4659 2.874 4.7493s2.72 2.2748 4.457 2.9511c1.745.684 3.743 1.0298 5.91 1.0298 1.552 0 2.951-.1614 4.165-.4919 1.046-.2843 2.083-.6532 3.09-1.1066v-6.5323h-4.665c-.792 0-1.43-.2459-1.914-.7224-.476-.4688-.722-1.0836-.722-1.7599v-5.6178z"/><path d="m145.48 47.3386v11.3047h16.692v8.4997h-16.692v18.1444h-10.206v-46.4178h29.98v8.469z"/><path d="m113.794 38.8696h-9.721l-18.2676 46.4255h7.8465c.9222 0 1.7137-.269 2.3593-.7993.5994-.4995 1.0221-1.0759 1.2373-1.6984l3.0975-8.4689h17.137l3.12 8.515c.285.684.723 1.2527 1.299 1.7138.623.4919 1.407.7455 2.336.7455h7.793l-18.237-46.4255zm-6.148 14.2558c.262-.6609.531-1.4294.807-2.3055.269.853.546 1.6139.792 2.221l4.964 13.5564h-11.481z"/></g><path d="m77.0368 17.7741c4.1115-.1998 7.8618-2.6052 9.5294-6.3709 1.1835-2.67437 1.2296-5.72535-2.1902-8.23068-8.0463-5.89444-28.4654-4.92612-43.4974 14.63238-15.032 19.5584-3.1201 25.4913 1.9366 25.8832 5.0568.392 15.9849-2.8357 19.766-15.5699 2.4746-8.3536 9.7523-10.1135 14.4633-10.3441" fill="#4cc8a8"/></svg>